<?xml version="1.0" standalone="no"?>
<!DOCTYPE svg PUBLIC "-//W3C//DTD SVG 20010904//EN"
 "http://www.w3.org/TR/2001/REC-SVG-20010904/DTD/svg10.dtd">
<svg version="1.0" xmlns="http://www.w3.org/2000/svg"
 width="665.000000pt" height="665.000000pt" viewBox="0 0 665.000000 665.000000"
 preserveAspectRatio="xMidYMid meet">
<metadata>
Created by potrace 1.16, written by Peter Selinger 2001-2019
</metadata>
<g transform="translate(0.000000,665.000000) scale(0.100000,-0.100000)"
fill="#000000" stroke="none">
<path d="M3524 6601 c-76 -35 -126 -126 -207 -381 -61 -191 -181 -538 -189
-546 -5 -4 -138 41 -411 140 -312 113 -462 114 -582 3 -75 -70 -107 -139 -215
-461 -55 -165 -104 -307 -108 -314 -9 -13 -103 17 -590 186 -193 68 -256 80
-322 62 -119 -32 -221 -252 -161 -346 49 -78 109 -106 545 -253 197 -66 361
-123 363 -125 7 -6 -36 -134 -46 -141 -5 -2 -134 38 -287 91 -495 170 -484
166 -554 167 -77 1 -136 -25 -171 -74 -40 -56 -69 -140 -69 -202 0 -54 3 -60
42 -103 58 -63 131 -95 523 -224 187 -62 344 -116 349 -121 11 -9 -28 -144
-43 -154 -5 -3 -161 47 -347 111 -411 141 -423 144 -498 144 -114 0 -173 -49
-222 -185 -29 -80 -30 -104 -4 -155 42 -82 87 -103 537 -255 200 -67 366 -125
370 -128 3 -4 -45 -158 -107 -342 -111 -335 -112 -337 -108 -418 5 -138 74
-248 192 -309 22 -11 183 -69 358 -128 176 -59 322 -111 326 -114 3 -4 -17
-78 -46 -164 -29 -87 -52 -161 -52 -165 0 -4 22 -7 49 -7 l49 0 56 168 c31 92
60 173 65 181 7 11 26 8 105 -19 53 -17 98 -36 102 -41 3 -5 -15 -69 -40 -142
-25 -73 -46 -135 -46 -140 0 -4 22 -7 49 -7 l48 0 28 78 c15 42 31 87 36 99
l8 22 93 -31 c51 -17 97 -34 102 -38 5 -5 -1 -35 -12 -69 l-21 -61 53 0 52 0
23 71 c12 38 29 73 36 75 8 3 57 -9 110 -27 104 -34 98 -27 79 -97 l-6 -22
283 0 c155 0 280 2 278 5 -8 8 -1680 569 -1894 636 -236 73 -350 176 -349 314
1 68 -8 39 419 1295 147 432 330 973 406 1203 76 231 153 448 171 484 60 122
142 183 245 183 24 0 166 -43 364 -111 178 -61 509 -173 734 -249 226 -76 538
-181 695 -235 157 -53 476 -161 710 -239 234 -79 453 -157 487 -174 147 -75
197 -179 155 -322 -11 -36 -133 -398 -272 -805 -138 -407 -343 -1012 -455
-1345 -112 -333 -207 -613 -211 -623 -6 -16 -1 -18 46 -15 l53 3 69 204 c37
113 72 209 77 214 8 8 357 -106 636 -208 123 -45 229 -68 275 -60 94 18 142
68 185 194 31 92 31 104 1 155 -46 78 -111 111 -419 215 -387 130 -512 173
-516 177 -5 5 39 135 49 147 6 7 389 -118 700 -228 43 -15 108 -29 152 -32
136 -10 197 39 247 199 14 44 21 86 18 100 -18 71 -99 139 -217 182 -36 13
-213 73 -393 133 -181 59 -334 111 -340 115 -12 7 29 148 43 148 4 0 176 -58
382 -129 410 -140 475 -157 547 -139 69 17 130 84 159 174 12 39 22 88 22 109
0 96 -87 159 -327 236 -208 67 -617 209 -624 217 -3 4 38 134 92 289 116 330
138 425 121 515 -34 181 -141 273 -412 352 -275 81 -430 137 -430 155 0 17 58
193 189 571 61 174 71 214 71 271 0 37 -5 80 -11 96 -35 94 -186 161 -268 119
-37 -20 -86 -76 -115 -134 -13 -26 -78 -213 -146 -415 -68 -204 -128 -371
-136 -374 -13 -5 -110 24 -181 53 l-32 14 84 247 c46 137 104 309 130 383 91
263 66 378 -94 435 -82 29 -132 15 -190 -50 -53 -60 -80 -127 -202 -500 -65
-198 -122 -365 -126 -371 -6 -7 -38 -1 -106 21 -54 18 -100 35 -102 37 -3 2
50 162 116 354 140 405 151 442 152 509 0 98 -43 159 -145 205 -54 24 -82 25
-134 1z m141 -113 c66 -58 51 -151 -83 -503 -27 -71 -70 -194 -96 -272 -29
-88 -53 -143 -61 -143 -25 0 -187 63 -191 75 -5 12 244 753 270 803 31 61 113
81 161 40z m600 -194 c8 -4 22 -19 30 -35 33 -63 10 -192 -69 -390 -25 -63
-74 -199 -110 -303 -35 -104 -69 -193 -73 -197 -6 -6 -48 4 -104 23 -91 32
-94 34 -93 63 1 17 61 201 132 410 113 330 134 383 161 407 31 28 85 37 126
22z m635 -222 c29 -23 37 -99 20 -185 -6 -34 -45 -150 -85 -257 -40 -107 -94
-259 -120 -337 -25 -79 -50 -143 -54 -143 -10 0 -183 60 -197 68 -8 5 33 134
125 402 75 217 142 405 149 417 29 53 117 72 162 35z m-3835 -891 c44 -11 154
-49 245 -84 91 -35 231 -86 313 -112 96 -32 147 -54 147 -63 0 -13 -55 -176
-65 -192 -3 -5 -182 51 -398 124 -441 150 -457 158 -457 235 0 54 14 79 53 96
43 19 68 18 162 -4z m-80 -650 c66 -24 220 -78 343 -120 122 -42 227 -82 232
-87 14 -14 -47 -194 -68 -202 -9 -3 -79 16 -157 43 -77 26 -237 81 -355 122
-118 40 -228 79 -244 85 -76 30 -112 96 -86 158 19 45 36 51 130 47 69 -3 108
-11 205 -46z m-355 -576 c39 -8 119 -33 178 -56 59 -22 204 -74 322 -115 118
-41 218 -78 223 -83 4 -4 -8 -50 -26 -102 -25 -70 -39 -95 -53 -97 -18 -2
-313 94 -634 207 -152 54 -194 81 -205 132 -10 46 12 99 49 115 40 17 60 17
146 -1z m5141 -374 c213 -71 395 -134 405 -139 45 -24 67 -61 67 -109 0 -38
-4 -50 -27 -70 -55 -47 -168 -31 -385 54 -64 25 -208 77 -321 115 -113 38
-208 73 -213 77 -5 6 24 106 58 198 2 7 10 11 17 8 7 -3 187 -63 399 -134z
m199 -751 c50 -25 70 -55 70 -103 0 -29 -7 -46 -29 -68 -26 -25 -37 -29 -88
-29 -72 0 -170 26 -333 90 -69 27 -206 76 -305 110 -99 34 -184 66 -190 71 -9
9 13 85 50 176 l14 32 386 -130 c213 -71 404 -138 425 -149z m-640 -470 c451
-153 464 -159 484 -199 28 -54 15 -117 -30 -141 -42 -23 -160 -6 -291 40 -65
23 -221 78 -348 121 -126 44 -240 83 -252 89 l-22 9 35 106 c20 58 37 105 38
105 2 0 175 -59 386 -130z"/>
<path d="M2352 5553 c-11 -10 -36 -65 -55 -123 -33 -100 -148 -437 -691 -2041
-130 -383 -236 -710 -236 -727 0 -17 5 -34 10 -37 12 -7 440 -154 1150 -395
272 -92 610 -207 750 -255 845 -288 835 -285 941 -285 l97 0 30 83 c16 45 133
390 260 767 127 377 330 977 451 1333 122 357 221 661 221 677 0 43 95 7 -860
330 -1557 527 -2041 690 -2044 690 -2 0 -13 -8 -24 -17z m920 -388 c1267 -429
1873 -636 1888 -645 10 -6 0 -45 -43 -171 -30 -90 -175 -517 -322 -949 -146
-432 -330 -974 -407 -1205 -77 -231 -144 -424 -149 -429 -8 -9 -72 12 -1194
394 -407 138 -922 313 -1145 387 -223 75 -409 139 -414 143 -4 5 0 32 9 62 38
118 883 2610 906 2676 5 12 13 22 18 22 5 0 389 -128 853 -285z"/>
<path d="M2736 4748 c-8 -13 -95 -264 -194 -558 -100 -294 -226 -668 -282
-830 -61 -178 -99 -304 -95 -317 6 -25 28 -34 365 -148 893 -303 1351 -454
1363 -449 9 3 18 13 22 22 24 60 520 1518 561 1649 23 75 38 68 -626 292 -327
110 -700 236 -829 280 -129 45 -242 81 -252 81 -10 0 -25 -10 -33 -22z m715
-309 c343 -116 690 -233 772 -261 91 -31 147 -55 147 -63 0 -13 -76 -238 -401
-1192 -68 -200 -128 -363 -134 -363 -9 0 -190 61 -1207 407 -221 75 -348 123
-348 131 0 7 62 199 139 425 284 843 384 1127 396 1127 7 0 293 -95 636 -211z"/>
</g>
</svg>
